<?xml version="1.0" standalone="no"?>
<!DOCTYPE svg PUBLIC "-//W3C//DTD SVG 20010904//EN"
 "http://www.w3.org/TR/2001/REC-SVG-20010904/DTD/svg10.dtd">
<svg version="1.0" xmlns="http://www.w3.org/2000/svg"
 width="148.000000pt" height="148.000000pt" viewBox="0 0 148.000000 148.000000"
 preserveAspectRatio="xMidYMid meet">
<metadata>
Created by potrace 1.14, written by Peter Selinger 2001-2017
</metadata>
<g transform="translate(0.000000,148.000000) scale(0.100000,-0.100000)"
fill="#000000" stroke="none">
<path d="M1036 1275 c-8 -8 -19 -37 -26 -64 -15 -62 -55 -106 -112 -122 -68
-18 -88 -30 -88 -54 0 -29 14 -39 75 -54 56 -14 111 -62 120 -108 11 -52 34
-93 52 -93 29 0 40 13 53 60 24 90 59 123 156 149 75 20 65 71 -18 92 -70 18
-112 60 -133 132 -20 70 -48 92 -79 62z"/>
<path d="M536 1107 c-9 -7 -28 -50 -41 -96 -51 -173 -75 -199 -235 -247 -118
-36 -149 -61 -114 -93 10 -10 62 -30 114 -45 52 -15 111 -38 132 -51 41 -27
75 -91 102 -195 24 -88 38 -109 70 -103 22 5 29 15 46 77 30 104 51 158 72
187 20 26 65 57 96 64 79 19 186 56 193 67 25 39 4 56 -112 89 -166 48 -190
72 -238 238 -34 118 -47 135 -85 108z"/>
<path d="M958 520 c-9 -6 -24 -32 -33 -59 -18 -57 -35 -74 -90 -92 -55 -18
-66 -28 -63 -58 2 -20 14 -29 56 -46 65 -26 81 -42 101 -101 17 -47 45 -70 70
-55 6 4 22 34 34 67 22 57 25 60 85 83 94 37 96 76 3 110 -59 21 -65 28 -96
106 -21 52 -36 63 -67 45z"/>
</g>
</svg>
